<svg width="59" height="58" viewBox="0 0 59 58" fill="none" xmlns="http://www.w3.org/2000/svg">
<path d="M38 33.5L5 23.1V15.9L38 5.5V33.5Z" fill="#556080"/>
<path d="M21.2762 33.384L9.86022 29.685C8.60422 29.278 7.91022 27.918 8.31622 26.662C8.72322 25.406 10.0832 24.712 11.3392 25.118L22.7552 28.816C24.0112 29.223 24.7052 30.583 24.2992 31.839C23.8922 33.096 22.5322 33.79 21.2762 33.384Z" stroke="#AFB6BB" stroke-width="2" stroke-miterlimit="10" stroke-linecap="round"/>
<path d="M2.5 26.5C1.125 26.5 0 25.375 0 24V15C0 13.625 1.125 12.5 2.5 12.5C3.875 12.5 5 13.625 5 15V24C5 25.375 3.875 26.5 2.5 26.5Z" fill="#424A60"/>
<path d="M41 38.5C39.35 38.5 38 37.15 38 35.5V3.5C38 1.85 39.35 0.5 41 0.5C42.65 0.5 44 1.85 44 3.5V35.5C44 37.15 42.65 38.5 41 38.5Z" fill="#424A60"/>
<path d="M58 20.5H57C56.447 20.5 56 20.053 56 19.5C56 18.947 56.447 18.5 57 18.5H58C58.553 18.5 59 18.947 59 19.5C59 20.053 58.553 20.5 58 20.5ZM54 20.5H53C52.447 20.5 52 20.053 52 19.5C52 18.947 52.447 18.5 53 18.5H54C54.553 18.5 55 18.947 55 19.5C55 20.053 54.553 20.5 54 20.5ZM50 20.5H49C48.447 20.5 48 20.053 48 19.5C48 18.947 48.447 18.5 49 18.5H50C50.553 18.5 51 18.947 51 19.5C51 20.053 50.553 20.5 50 20.5Z" fill="#C7CAC7"/>
<path d="M48.9998 8.86376C48.7438 8.86376 48.4878 8.76576 48.2928 8.57076C47.9018 8.17976 47.9018 7.54776 48.2928 7.15676L48.9998 6.44976C49.3908 6.05876 50.0228 6.05876 50.4138 6.44976C50.8048 6.84076 50.8048 7.47276 50.4138 7.86376L49.7068 8.57076C49.5118 8.76676 49.2558 8.86376 48.9998 8.86376ZM51.8278 6.03576C51.5718 6.03576 51.3158 5.93776 51.1208 5.74276C50.7298 5.35176 50.7298 4.71976 51.1208 4.32876L51.8278 3.62176C52.2188 3.23076 52.8508 3.23076 53.2418 3.62176C53.6328 4.01276 53.6328 4.64476 53.2418 5.03576L52.5348 5.74276C52.3398 5.93776 52.0838 6.03576 51.8278 6.03576ZM54.6568 3.20676C54.4008 3.20676 54.1448 3.10876 53.9498 2.91376C53.5588 2.52276 53.5588 1.89076 53.9498 1.49976L54.6568 0.792762C55.0478 0.401762 55.6798 0.401762 56.0708 0.792762C56.4618 1.18376 56.4618 1.81576 56.0708 2.20676L55.3638 2.91376C55.1688 3.10876 54.9128 3.20676 54.6568 3.20676Z" fill="#C7CAC7"/>
<path d="M48.9999 14.8641C48.5809 14.8641 48.1909 14.5991 48.0519 14.1801C47.8769 13.6571 48.1589 13.0901 48.6839 12.9151L49.6319 12.5991C50.1549 12.4231 50.7219 12.7071 50.8969 13.2311C51.0719 13.7551 50.7899 14.3211 50.2649 14.4961L49.3169 14.8121C49.2119 14.8481 49.1039 14.8641 48.9999 14.8641ZM52.7949 13.6001C52.3759 13.6001 51.9859 13.3351 51.8469 12.9161C51.6719 12.3931 51.9539 11.8261 52.4789 11.6511L53.4269 11.3351C53.9509 11.1591 54.5169 11.4431 54.6919 11.9671C54.8669 12.4911 54.5849 13.0571 54.0599 13.2321L53.1119 13.5481C53.0069 13.5831 52.8989 13.6001 52.7949 13.6001ZM56.5899 12.3341C56.1709 12.3341 55.7799 12.0691 55.6409 11.6491C55.4669 11.1261 55.7499 10.5591 56.2749 10.3841L57.2229 10.0691C57.7449 9.89707 58.3129 10.1781 58.4879 10.7031C58.6619 11.2261 58.3789 11.7931 57.8539 11.9681L56.9059 12.2831C56.8009 12.3171 56.6939 12.3341 56.5899 12.3341Z" fill="#C7CAC7"/>
<path d="M55.3638 38.5C55.1078 38.5 54.8518 38.402 54.6568 38.207L53.9498 37.5C53.5588 37.109 53.5588 36.477 53.9498 36.086C54.3408 35.695 54.9728 35.695 55.3638 36.086L56.0708 36.793C56.4618 37.184 56.4618 37.816 56.0708 38.207C55.8758 38.402 55.6198 38.5 55.3638 38.5ZM52.5348 35.671C52.2788 35.671 52.0228 35.573 51.8278 35.378L51.1208 34.671C50.7298 34.28 50.7298 33.648 51.1208 33.257C51.5118 32.866 52.1438 32.866 52.5348 33.257L53.2418 33.964C53.6328 34.355 53.6328 34.987 53.2418 35.378C53.0468 35.573 52.7908 35.671 52.5348 35.671ZM49.7068 32.843C49.4508 32.843 49.1948 32.745 48.9998 32.55L48.2928 31.843C47.9018 31.452 47.9018 30.82 48.2928 30.429C48.6838 30.038 49.3158 30.038 49.7068 30.429L50.4138 31.136C50.8048 31.527 50.8048 32.159 50.4138 32.55C50.2188 32.745 49.9628 32.843 49.7068 32.843Z" fill="#C7CAC7"/>
<path d="M57.5378 28.9808C57.4338 28.9808 57.3268 28.9638 57.2228 28.9298L56.2748 28.6148C55.7508 28.4398 55.4668 27.8738 55.6408 27.3498C55.8148 26.8258 56.3828 26.5428 56.9058 26.7158L57.8538 27.0308C58.3778 27.2058 58.6618 27.7718 58.4878 28.2958C58.3478 28.7168 57.9568 28.9808 57.5378 28.9808ZM53.7428 27.7168C53.6388 27.7168 53.5308 27.6998 53.4268 27.6648L52.4788 27.3488C51.9548 27.1738 51.6718 26.6078 51.8468 26.0838C52.0218 25.5598 52.5888 25.2748 53.1118 25.4518L54.0598 25.7678C54.5838 25.9428 54.8668 26.5088 54.6918 27.0328C54.5518 27.4518 54.1618 27.7168 53.7428 27.7168ZM49.9478 26.4518C49.8438 26.4518 49.7358 26.4348 49.6318 26.3998L48.6838 26.0838C48.1598 25.9088 47.8768 25.3428 48.0518 24.8188C48.2268 24.2948 48.7928 24.0098 49.3168 24.1868L50.2648 24.5028C50.7888 24.6778 51.0718 25.2438 50.8968 25.7678C50.7568 26.1878 50.3668 26.4518 49.9478 26.4518Z" fill="#C7CAC7"/>
<g filter="url(#filter0_d)">
<path d="M2.07803 56.736L2.19803 56.556C2.33403 56.372 2.43003 56.176 2.48603 55.968C2.54203 55.768 2.57003 55.496 2.57003 55.152V49.86C2.57003 49.756 2.55403 49.676 2.52203 49.62C2.49003 49.564 2.43003 49.524 2.34203 49.5L1.77803 49.368V49.032C1.89003 48.928 2.10603 48.828 2.42603 48.732C2.74603 48.636 3.02603 48.588 3.26603 48.588C3.45003 48.588 3.54203 48.756 3.54203 49.092V49.14C4.00603 48.692 4.53003 48.468 5.11403 48.468C5.55403 48.468 5.95003 48.58 6.30203 48.804C6.65403 49.028 6.92603 49.34 7.11803 49.74C7.31803 50.132 7.41803 50.584 7.41803 51.096C7.41803 51.672 7.31403 52.196 7.10603 52.668C6.89803 53.132 6.61003 53.496 6.24203 53.76C5.88203 54.024 5.47803 54.156 5.03003 54.156C4.59803 54.156 4.23803 54.056 3.95003 53.856C3.87803 53.816 3.84203 53.752 3.84203 53.664C3.84203 53.584 3.85403 53.52 3.87803 53.472C3.91003 53.416 3.95403 53.388 4.01003 53.388C4.03403 53.388 4.11003 53.42 4.23803 53.484C4.37403 53.54 4.55003 53.568 4.76603 53.568C5.21403 53.568 5.57403 53.356 5.84603 52.932C6.12603 52.508 6.26603 51.964 6.26603 51.3C6.26603 50.676 6.12603 50.168 5.84603 49.776C5.57403 49.376 5.21003 49.176 4.75403 49.176C4.51403 49.176 4.29803 49.208 4.10603 49.272C3.91403 49.336 3.72603 49.444 3.54203 49.596V55.692C3.54203 55.972 3.57003 56.168 3.62603 56.28C3.69003 56.392 3.81403 56.468 3.99803 56.508L4.21403 56.556L4.11803 56.88H2.19803L2.07803 56.736ZM13.9588 57.036C13.5588 57.036 13.2148 56.96 12.9268 56.808C12.6468 56.664 12.4348 56.472 12.2908 56.232C12.1548 55.992 12.0868 55.74 12.0868 55.476C12.0868 55.108 12.2108 54.796 12.4588 54.54C12.7068 54.284 13.0468 54.156 13.4788 54.156C13.5428 54.156 13.5908 54.164 13.6228 54.18C13.6548 54.204 13.6708 54.232 13.6708 54.264C13.6708 54.296 13.6188 54.364 13.5148 54.468C13.4188 54.58 13.3308 54.712 13.2508 54.864C13.1788 55.016 13.1428 55.208 13.1428 55.44C13.1428 55.728 13.2268 55.968 13.3948 56.16C13.5708 56.36 13.8028 56.46 14.0908 56.46C14.5388 56.46 14.8708 56.272 15.0868 55.896C15.3028 55.528 15.4108 55.032 15.4108 54.408V52.8C15.2348 53.12 14.9788 53.372 14.6428 53.556C14.3148 53.74 13.9468 53.832 13.5388 53.832C13.0268 53.832 12.6268 53.676 12.3388 53.364C12.0588 53.044 11.9188 52.6 11.9188 52.032V49.632C11.9188 49.536 11.9028 49.468 11.8708 49.428C11.8388 49.388 11.7828 49.368 11.7028 49.368H11.2108L11.1268 49.104C11.3108 48.912 11.5348 48.756 11.7988 48.636C12.0708 48.516 12.3188 48.456 12.5428 48.456C12.6468 48.456 12.7308 48.488 12.7948 48.552C12.8668 48.608 12.9028 48.684 12.9028 48.78V51.78C12.9028 52.212 12.9908 52.54 13.1668 52.764C13.3428 52.988 13.5948 53.1 13.9228 53.1C14.4108 53.1 14.7908 52.92 15.0628 52.56C15.3348 52.2 15.4708 51.692 15.4708 51.036C15.4708 50.436 15.4468 49.992 15.3988 49.704C15.3508 49.416 15.2308 49.152 15.0388 48.912L14.9188 48.744L15.0388 48.588L16.3708 48.456V54.24C16.3708 55.128 16.1548 55.816 15.7228 56.304C15.2908 56.792 14.7028 57.036 13.9588 57.036ZM22.2962 54.156C22.0002 54.156 21.7682 54.064 21.6002 53.88C21.4322 53.688 21.3482 53.428 21.3482 53.1V49.272H20.4002C20.4002 49.08 20.4162 48.956 20.4482 48.9C20.4802 48.836 20.5522 48.788 20.6642 48.756C21.0482 48.66 21.3202 48.5 21.4802 48.276C21.6402 48.052 21.7602 47.756 21.8402 47.388C21.8562 47.276 21.8922 47.208 21.9482 47.184C22.0122 47.152 22.1482 47.136 22.3562 47.136V48.6H23.7602C23.7602 48.752 23.7362 48.888 23.6882 49.008C23.6482 49.128 23.5922 49.216 23.5202 49.272H22.3562V52.788C22.3562 53.012 22.3842 53.172 22.4402 53.268C22.5042 53.356 22.6122 53.4 22.7642 53.4C22.9802 53.4 23.2242 53.284 23.4962 53.052L23.7002 53.34C23.5162 53.58 23.2922 53.776 23.0282 53.928C22.7642 54.08 22.5202 54.156 22.2962 54.156ZM28.8676 54.156C28.5716 54.156 28.3396 54.064 28.1716 53.88C28.0036 53.688 27.9196 53.428 27.9196 53.1V49.272H26.9716C26.9716 49.08 26.9876 48.956 27.0196 48.9C27.0516 48.836 27.1236 48.788 27.2356 48.756C27.6196 48.66 27.8916 48.5 28.0516 48.276C28.2116 48.052 28.3316 47.756 28.4116 47.388C28.4276 47.276 28.4636 47.208 28.5196 47.184C28.5836 47.152 28.7196 47.136 28.9276 47.136V48.6H30.3316C30.3316 48.752 30.3076 48.888 30.2596 49.008C30.2196 49.128 30.1636 49.216 30.0916 49.272H28.9276V52.788C28.9276 53.012 28.9556 53.172 29.0116 53.268C29.0756 53.356 29.1836 53.4 29.3356 53.4C29.5516 53.4 29.7956 53.284 30.0676 53.052L30.2716 53.34C30.0876 53.58 29.8636 53.776 29.5996 53.928C29.3356 54.08 29.0916 54.156 28.8676 54.156ZM35.907 54.156C35.363 54.156 34.911 54.032 34.551 53.784C34.191 53.528 34.011 53.196 34.011 52.788C34.011 52.548 34.095 52.348 34.263 52.188C34.439 52.02 34.659 51.936 34.923 51.936C34.979 51.936 35.031 51.948 35.079 51.972C35.127 51.996 35.151 52.028 35.151 52.068C35.151 52.092 35.127 52.164 35.079 52.284C35.031 52.396 35.007 52.532 35.007 52.692C35.007 52.988 35.111 53.216 35.319 53.376C35.535 53.536 35.775 53.616 36.039 53.616C36.343 53.616 36.591 53.536 36.783 53.376C36.975 53.216 37.071 53.008 37.071 52.752C37.071 52.52 36.967 52.328 36.759 52.176C36.559 52.024 36.267 51.868 35.883 51.708C35.531 51.556 35.235 51.412 34.995 51.276C34.763 51.14 34.563 50.96 34.395 50.736C34.227 50.512 34.143 50.24 34.143 49.92C34.143 49.496 34.331 49.148 34.707 48.876C35.083 48.604 35.555 48.468 36.123 48.468C36.643 48.468 37.071 48.568 37.407 48.768C37.743 48.96 37.911 49.228 37.911 49.572C37.911 49.852 37.827 50.08 37.659 50.256C37.491 50.432 37.271 50.52 36.999 50.52C36.839 50.52 36.759 50.468 36.759 50.364C36.759 50.332 36.787 50.26 36.843 50.148C36.907 50.036 36.939 49.908 36.939 49.764C36.939 49.508 36.847 49.316 36.663 49.188C36.479 49.052 36.271 48.984 36.039 48.984C35.743 48.984 35.507 49.056 35.331 49.2C35.163 49.344 35.079 49.532 35.079 49.764C35.079 50.036 35.191 50.26 35.415 50.436C35.639 50.604 35.955 50.764 36.363 50.916C36.715 51.068 37.007 51.208 37.239 51.336C37.471 51.464 37.667 51.628 37.827 51.828C37.987 52.02 38.067 52.248 38.067 52.512C38.067 53.008 37.867 53.408 37.467 53.712C37.075 54.008 36.555 54.156 35.907 54.156ZM46.3175 54.156C45.8215 54.156 45.4375 53.9 45.1655 53.388L44.2775 51.888C43.6295 52.616 43.3055 53.088 43.3055 53.304C43.3055 53.376 43.3215 53.44 43.3535 53.496C43.3935 53.544 43.4495 53.6 43.5215 53.664L43.7255 53.832L43.6055 54H41.9135L41.7815 53.772C42.6215 52.948 43.3775 52.184 44.0495 51.48L42.8495 49.44C42.7855 49.328 42.7175 49.252 42.6455 49.212C42.5735 49.164 42.4895 49.14 42.3935 49.14C42.3135 49.14 42.1775 49.184 41.9855 49.272L41.7455 48.96C42.0495 48.632 42.3855 48.468 42.7535 48.468C43.2575 48.468 43.6415 48.716 43.9055 49.212L44.7815 50.7C45.4215 49.964 45.7415 49.488 45.7415 49.272C45.7415 49.208 45.7255 49.152 45.6935 49.104C45.6615 49.056 45.6095 48.996 45.5375 48.924L45.2975 48.756L45.4415 48.6H47.1455L47.2535 48.816L46.9655 49.104C46.2215 49.832 45.5695 50.5 45.0095 51.108L46.2215 53.16C46.2855 53.28 46.3495 53.36 46.4135 53.4C46.4855 53.44 46.5735 53.46 46.6775 53.46C46.8055 53.46 46.9375 53.416 47.0735 53.328L47.3255 53.652C47.1495 53.828 46.9815 53.956 46.8215 54.036C46.6695 54.116 46.5015 54.156 46.3175 54.156ZM53.5535 54.156C53.1135 54.156 52.7015 54.088 52.3175 53.952C51.9335 53.816 51.6215 53.616 51.3815 53.352C51.1495 53.088 51.0335 52.768 51.0335 52.392C51.0335 52.056 51.1415 51.784 51.3575 51.576C51.5815 51.36 51.8575 51.252 52.1855 51.252C52.2815 51.252 52.3455 51.26 52.3775 51.276C52.4095 51.284 52.4255 51.316 52.4255 51.372C52.4255 51.396 52.3935 51.456 52.3295 51.552C52.2655 51.648 52.2095 51.756 52.1615 51.876C52.1215 51.988 52.1015 52.128 52.1015 52.296C52.1015 52.656 52.2375 52.94 52.5095 53.148C52.7895 53.356 53.1295 53.46 53.5295 53.46C53.9535 53.46 54.3215 53.328 54.6335 53.064C54.9535 52.8 55.1135 52.42 55.1135 51.924C55.1135 51.508 54.9775 51.132 54.7055 50.796C54.4415 50.46 53.9535 50.292 53.2415 50.292C52.9935 50.292 52.7935 50.312 52.6415 50.352C52.4895 50.384 52.3975 50.4 52.3655 50.4C52.2535 50.4 52.1975 50.34 52.1975 50.22C52.1975 50.124 52.2295 50.052 52.2935 50.004C52.3655 49.948 52.5375 49.896 52.8095 49.848C53.6335 49.696 54.1815 49.452 54.4535 49.116C54.7335 48.772 54.8735 48.396 54.8735 47.988C54.8735 47.564 54.7375 47.236 54.4655 47.004C54.1935 46.764 53.8775 46.644 53.5175 46.644C53.1815 46.644 52.8935 46.744 52.6535 46.944C52.4215 47.136 52.3055 47.408 52.3055 47.76C52.3055 47.944 52.3295 48.1 52.3775 48.228C52.4335 48.348 52.4895 48.456 52.5455 48.552C52.6015 48.64 52.6295 48.692 52.6295 48.708C52.6295 48.796 52.5535 48.84 52.4015 48.84C52.0655 48.84 51.7855 48.732 51.5615 48.516C51.3455 48.3 51.2375 48.024 51.2375 47.688C51.2375 47.168 51.4615 46.764 51.9095 46.476C52.3575 46.188 52.8975 46.044 53.5295 46.044C53.9535 46.044 54.3615 46.116 54.7535 46.26C55.1455 46.404 55.4615 46.62 55.7015 46.908C55.9495 47.188 56.0735 47.528 56.0735 47.928C56.0735 48.392 55.9335 48.792 55.6535 49.128C55.3735 49.456 54.9775 49.716 54.4655 49.908C55.0575 50.044 55.5095 50.3 55.8215 50.676C56.1335 51.052 56.2895 51.492 56.2895 51.996C56.2895 52.684 56.0415 53.216 55.5455 53.592C55.0575 53.968 54.3935 54.156 53.5535 54.156Z" fill="black"/>
<path d="M2.07803 56.736L1.24598 56.1813L0.8318 56.8026L1.30981 57.3762L2.07803 56.736ZM2.19803 56.556L1.39386 55.9616L1.37944 55.9811L1.36598 56.0013L2.19803 56.556ZM2.48603 55.968L1.52302 55.6984L1.52042 55.708L2.48603 55.968ZM2.34203 49.5L2.60515 48.5352L2.58761 48.5305L2.56992 48.5263L2.34203 49.5ZM1.77803 49.368H0.778032V50.161L1.55015 50.3417L1.77803 49.368ZM1.77803 49.032L1.09758 48.2992L0.778032 48.5959V49.032H1.77803ZM2.42603 48.732L2.71338 49.6898L2.71338 49.6898L2.42603 48.732ZM3.54203 49.14H2.54203V51.4956L4.23663 49.8594L3.54203 49.14ZM7.11803 49.74L6.21651 50.1727L6.22176 50.1837L6.22727 50.1945L7.11803 49.74ZM7.10603 52.668L8.01856 53.0771L8.02112 53.0713L7.10603 52.668ZM6.24203 53.76L5.65909 52.9474L5.65067 52.9536L6.24203 53.76ZM3.95003 53.856L4.52043 53.0346L4.47937 53.0061L4.43567 52.9818L3.95003 53.856ZM3.87803 53.472L3.00979 52.9759L2.99602 53L2.98361 53.0248L3.87803 53.472ZM4.23803 53.484L3.79082 54.3784L3.8235 54.3948L3.85728 54.4087L4.23803 53.484ZM5.84603 52.932L5.01149 52.3809L5.00434 52.392L5.84603 52.932ZM5.84603 49.776L5.01911 50.3383L5.02559 50.3478L5.0323 50.3572L5.84603 49.776ZM4.10603 49.272L3.7898 48.3233L3.7898 48.3233L4.10603 49.272ZM3.54203 49.596L2.90515 48.825L2.54203 49.125V49.596H3.54203ZM3.62603 56.28L2.7316 56.7272L2.74402 56.752L2.75779 56.7761L3.62603 56.28ZM3.99803 56.508L4.21497 55.5318L4.21046 55.5308L3.99803 56.508ZM4.21403 56.556L5.17283 56.8401L5.47735 55.8123L4.43096 55.5798L4.21403 56.556ZM4.11803 56.88V57.88H4.86471L5.07683 57.1641L4.11803 56.88ZM2.19803 56.88L1.42981 57.5202L1.72966 57.88H2.19803V56.88ZM2.91008 57.2907L3.03008 57.1107L1.36598 56.0013L1.24598 56.1813L2.91008 57.2907ZM3.00221 57.1504C3.20776 56.8723 3.36121 56.5639 3.45165 56.228L1.52042 55.708C1.49886 55.7881 1.4603 55.8717 1.39386 55.9616L3.00221 57.1504ZM3.449 56.2376C3.54036 55.9113 3.57003 55.5359 3.57003 55.152H1.57003C1.57003 55.4561 1.5437 55.6247 1.52307 55.6984L3.449 56.2376ZM3.57003 55.152V49.86H1.57003V55.152H3.57003ZM3.57003 49.86C3.57003 49.6777 3.54617 49.3967 3.39027 49.1239L1.65379 50.1161C1.60449 50.0299 1.58521 49.9569 1.57745 49.9181C1.56958 49.8788 1.57003 49.8569 1.57003 49.86H3.57003ZM3.39027 49.1239C3.18028 48.7564 2.84186 48.5998 2.60515 48.5352L2.07891 50.4648C2.0182 50.4482 1.79978 50.3716 1.65379 50.1161L3.39027 49.1239ZM2.56992 48.5263L2.00592 48.3943L1.55015 50.3417L2.11415 50.4737L2.56992 48.5263ZM2.77803 49.368V49.032H0.778032V49.368H2.77803ZM2.45848 49.7648C2.44326 49.7789 2.43092 49.7887 2.42305 49.7946C2.41512 49.8005 2.41033 49.8035 2.40967 49.8039C2.40901 49.8043 2.41915 49.798 2.44416 49.7865C2.49587 49.7625 2.58219 49.7292 2.71338 49.6898L2.13868 47.7742C1.80623 47.8739 1.39211 48.0257 1.09758 48.2992L2.45848 49.7648ZM2.71338 49.6898C2.97374 49.6117 3.15311 49.588 3.26603 49.588V47.588C2.89896 47.588 2.51832 47.6603 2.13868 47.7742L2.71338 49.6898ZM3.26603 49.588C3.15466 49.588 3.00984 49.5607 2.86683 49.4737C2.72591 49.3879 2.64145 49.2774 2.59594 49.1943C2.52141 49.0582 2.54203 48.9825 2.54203 49.092H4.54203C4.54203 48.8655 4.51665 48.5378 4.35013 48.2337C4.25862 48.0666 4.11665 47.8931 3.90673 47.7653C3.69472 47.6363 3.4694 47.588 3.26603 47.588V49.588ZM2.54203 49.092V49.14H4.54203V49.092H2.54203ZM4.23663 49.8594C4.53545 49.5709 4.81728 49.468 5.11403 49.468V47.468C4.24279 47.468 3.47662 47.8131 2.84744 48.4206L4.23663 49.8594ZM5.11403 49.468C5.37473 49.468 5.58255 49.5315 5.76516 49.6477L6.83891 47.9603C6.31751 47.6285 5.73333 47.468 5.11403 47.468V49.468ZM5.76516 49.6477C5.94951 49.765 6.09996 49.9299 6.21651 50.1727L8.01956 49.3073C7.75211 48.7501 7.35855 48.291 6.83891 47.9603L5.76516 49.6477ZM6.22727 50.1945C6.34458 50.4244 6.41803 50.7162 6.41803 51.096H8.41803C8.41803 50.4518 8.29148 49.8396 8.00879 49.2855L6.22727 50.1945ZM6.41803 51.096C6.41803 51.5494 6.33675 51.9339 6.19095 52.2647L8.02112 53.0713C8.29132 52.4581 8.41803 51.7946 8.41803 51.096H6.41803ZM6.19352 52.2589C6.04874 52.5819 5.86654 52.7987 5.65912 52.9475L6.82494 54.5725C7.35353 54.1933 7.74732 53.6821 8.01854 53.0771L6.19352 52.2589ZM5.65067 52.9536C5.46284 53.0913 5.26615 53.156 5.03003 53.156V55.156C5.68992 55.156 6.30123 54.9567 6.8334 54.5664L5.65067 52.9536ZM5.03003 53.156C4.7541 53.156 4.60555 53.0937 4.52043 53.0346L3.37964 54.6774C3.87051 55.0183 4.44196 55.156 5.03003 55.156V53.156ZM4.43567 52.9818C4.54113 53.0404 4.65724 53.1395 4.74061 53.2877C4.82205 53.4325 4.84203 53.5703 4.84203 53.664H2.84203C2.84203 53.8457 2.88001 54.0595 2.99746 54.2683C3.11683 54.4805 3.28693 54.6316 3.46439 54.7302L4.43567 52.9818ZM4.84203 53.664C4.84203 53.6724 4.84153 53.6996 4.8339 53.7403C4.82629 53.7809 4.80975 53.8446 4.77246 53.9192L2.98361 53.0248C2.86452 53.263 2.84203 53.4987 2.84203 53.664H4.84203ZM4.74627 53.9681C4.70046 54.0483 4.61566 54.1612 4.47191 54.2527C4.32154 54.3484 4.15758 54.388 4.01003 54.388V52.388C3.53436 52.388 3.18745 52.6649 3.00979 52.9759L4.74627 53.9681ZM4.01003 54.388C3.95794 54.388 3.91498 54.3838 3.88511 54.3799C3.85438 54.3759 3.82886 54.371 3.81014 54.3669C3.77382 54.3591 3.7467 54.3508 3.73301 54.3464C3.70615 54.3378 3.69178 54.3314 3.69697 54.3336C3.70565 54.3373 3.73438 54.3502 3.79082 54.3784L4.68525 52.5896C4.61368 52.5538 4.54042 52.5187 4.47309 52.4904C4.44028 52.4766 4.39441 52.4582 4.34256 52.4416C4.32004 52.4344 4.18324 52.388 4.01003 52.388V54.388ZM3.85728 54.4087C4.15675 54.532 4.47526 54.568 4.76603 54.568V52.568C4.70003 52.568 4.65566 52.5636 4.62915 52.5594C4.60233 52.5552 4.6017 52.5523 4.61878 52.5593L3.85728 54.4087ZM4.76603 54.568C5.60183 54.568 6.25884 54.1405 6.68773 53.472L5.00434 52.392C4.93577 52.4989 4.88445 52.5356 4.86459 52.5473C4.8495 52.5562 4.82495 52.568 4.76603 52.568V54.568ZM6.6805 53.4831C7.09706 52.8523 7.26603 52.1007 7.26603 51.3H5.26603C5.26603 51.8273 5.155 52.1637 5.01157 52.3809L6.6805 53.4831ZM7.26603 51.3C7.26603 50.529 7.09228 49.8003 6.65977 49.1948L5.0323 50.3572C5.15978 50.5357 5.26603 50.823 5.26603 51.3H7.26603ZM6.67296 49.2137C6.22821 48.5597 5.56434 48.176 4.75403 48.176V50.176C4.85572 50.176 4.91985 50.1923 5.01911 50.3383L6.67296 49.2137ZM4.75403 48.176C4.42598 48.176 4.1007 48.2197 3.7898 48.3233L4.42226 50.2207C4.49536 50.1963 4.60209 50.176 4.75403 50.176V48.176ZM3.7898 48.3233C3.46196 48.4326 3.16747 48.6083 2.90515 48.825L4.17891 50.367C4.28459 50.2797 4.3661 50.2394 4.42226 50.2207L3.7898 48.3233ZM2.54203 49.596V55.692H4.54203V49.596H2.54203ZM2.54203 55.692C2.54203 55.9808 2.56164 56.3873 2.7316 56.7272L4.52046 55.8328C4.54264 55.8772 4.55169 55.9085 4.55405 55.9171C4.55668 55.9268 4.55545 55.9248 4.55298 55.9076C4.54778 55.8712 4.54203 55.8024 4.54203 55.692H2.54203ZM2.75779 56.7761C3.0168 57.2294 3.45399 57.4131 3.7856 57.4852L4.21046 55.5308C4.17408 55.5229 4.36326 55.5546 4.49428 55.7839L2.75779 56.7761ZM3.7811 57.4842L3.9971 57.5322L4.43096 55.5798L4.21496 55.5318L3.7811 57.4842ZM3.25523 56.2719L3.15923 56.5959L5.07683 57.1641L5.17283 56.8401L3.25523 56.2719ZM4.11803 55.88H2.19803V57.88H4.11803V55.88ZM2.96625 56.2398L2.84625 56.0958L1.30981 57.3762L1.42981 57.5202L2.96625 56.2398ZM12.9268 56.808L13.3936 55.9236L13.3841 55.9187L12.9268 56.808ZM12.2908 56.232L11.4208 56.725L11.4269 56.7358L11.4333 56.7465L12.2908 56.232ZM12.4588 54.54L13.177 55.2358L13.177 55.2358L12.4588 54.54ZM13.6228 54.18L14.2228 53.38L14.1506 53.3259L14.07 53.2856L13.6228 54.18ZM13.5148 54.468L12.8077 53.7609L12.7805 53.788L12.7555 53.8172L13.5148 54.468ZM13.2508 54.864L12.3659 54.3983L12.3561 54.4169L12.347 54.4359L13.2508 54.864ZM13.3948 56.16L12.6422 56.8185L12.6441 56.8206L13.3948 56.16ZM15.0868 55.896L14.2243 55.3898L14.2197 55.3979L15.0868 55.896ZM15.4108 52.8H16.4108L14.5346 52.3181L15.4108 52.8ZM14.6428 53.556L14.1624 52.6789L14.1535 52.6839L14.6428 53.556ZM12.3388 53.364L11.5862 54.0225L11.595 54.0325L11.604 54.0423L12.3388 53.364ZM11.2108 49.368L10.2579 49.6712L10.4796 50.368H11.2108V49.368ZM11.1268 49.104L10.4048 48.4121L9.99372 48.841L10.1739 49.4072L11.1268 49.104ZM11.7988 48.636L11.3951 47.721L11.385 47.7256L11.7988 48.636ZM12.7948 48.552L12.0877 49.2591L12.1317 49.3031L12.1808 49.3414L12.7948 48.552ZM15.0628 52.56L14.2649 51.9572L14.2649 51.9572L15.0628 52.56ZM15.3988 49.704L14.4124 49.8684L14.4124 49.8684L15.3988 49.704ZM15.0388 48.912L14.225 49.4932L14.2409 49.5154L14.2579 49.5367L15.0388 48.912ZM14.9188 48.744L14.1262 48.1343L13.6741 48.7219L14.105 49.3252L14.9188 48.744ZM15.0388 48.588L14.9402 47.5929L14.5098 47.6355L14.2462 47.9783L15.0388 48.588ZM16.3708 48.456H17.3708V47.352L16.2722 47.4609L16.3708 48.456ZM15.7228 56.304L14.974 55.6412L14.974 55.6412L15.7228 56.304ZM13.9588 56.036C13.6848 56.036 13.5084 55.9843 13.3935 55.9236L12.46 57.6924C12.9211 57.9357 13.4327 58.036 13.9588 58.036V56.036ZM13.3841 55.9187C13.2486 55.849 13.1848 55.7784 13.1483 55.7175L11.4333 56.7465C11.6848 57.1656 12.045 57.479 12.4694 57.6973L13.3841 55.9187ZM13.1608 55.739C13.106 55.6423 13.0868 55.5593 13.0868 55.476H11.0868C11.0868 55.9207 11.2035 56.3417 11.4208 56.725L13.1608 55.739ZM13.0868 55.476C13.0868 55.3583 13.1162 55.2986 13.177 55.2358L11.7405 53.8442C11.3054 54.2934 11.0868 54.8577 11.0868 55.476H13.0868ZM13.177 55.2358C13.1977 55.2144 13.256 55.156 13.4788 55.156V53.156C12.8376 53.156 12.2158 53.3536 11.7405 53.8442L13.177 55.2358ZM13.4788 55.156C13.4718 55.156 13.4426 55.1558 13.3984 55.1484C13.3569 55.1415 13.2743 55.1238 13.1756 55.0744L14.07 53.2856C13.829 53.1651 13.5939 53.156 13.4788 53.156V55.156ZM13.0228 54.98C12.955 54.9292 12.8645 54.8445 12.7905 54.7151C12.7129 54.5793 12.6708 54.4234 12.6708 54.264H14.6708C14.6708 53.8391 14.4368 53.5405 14.2228 53.38L13.0228 54.98ZM12.6708 54.264C12.6708 54.1371 12.6957 54.0367 12.7151 53.9754C12.7353 53.9119 12.7582 53.8635 12.7738 53.8334C12.8039 53.7755 12.8314 53.7395 12.8374 53.7315C12.8506 53.7143 12.8472 53.7214 12.8077 53.7609L14.2219 55.1751C14.2864 55.1106 14.3609 55.0317 14.4261 54.9465C14.4582 54.9045 14.5052 54.839 14.5482 54.7561C14.5804 54.6943 14.6708 54.5122 14.6708 54.264H12.6708ZM12.7555 53.8172C12.6037 53.9944 12.4752 54.1906 12.3659 54.3983L14.1357 55.3297C14.1864 55.2334 14.2339 55.1656 14.274 55.1188L12.7555 53.8172ZM12.347 54.4359C12.1924 54.7625 12.1428 55.1128 12.1428 55.44H14.1428C14.1428 55.3747 14.1479 55.3315 14.1527 55.3063C14.1573 55.2814 14.1606 55.2793 14.1545 55.2921L12.347 54.4359ZM12.1428 55.44C12.1428 55.9369 12.294 56.4206 12.6422 56.8185L14.1474 55.5015C14.1464 55.5004 14.1471 55.5011 14.1483 55.5031C14.1495 55.5052 14.1499 55.5064 14.1496 55.5056C14.1494 55.5049 14.1428 55.4862 14.1428 55.44H12.1428ZM12.6441 56.8206C13.0266 57.2553 13.5417 57.46 14.0908 57.46V55.46C14.0639 55.46 14.0713 55.4558 14.0966 55.4667C14.1083 55.4717 14.1198 55.4783 14.1297 55.4856C14.1394 55.4928 14.1445 55.4983 14.1455 55.4994L12.6441 56.8206ZM14.0908 57.46C14.8822 57.46 15.5524 57.0931 15.9539 56.3941L14.2197 55.3979C14.203 55.427 14.1907 55.4409 14.1858 55.4459C14.1815 55.4503 14.1809 55.4501 14.183 55.4488C14.1916 55.444 14.1723 55.46 14.0908 55.46V57.46ZM15.9492 56.4022C16.2876 55.8257 16.4108 55.1329 16.4108 54.408H14.4108C14.4108 54.9311 14.318 55.2303 14.2244 55.3898L15.9492 56.4022ZM16.4108 54.408V52.8H14.4108V54.408H16.4108ZM14.5346 52.3181C14.4549 52.463 14.3402 52.5816 14.1625 52.6789L15.1231 54.4331C15.6174 54.1624 16.0147 53.777 16.287 53.2819L14.5346 52.3181ZM14.1535 52.6839C13.9875 52.777 13.7904 52.832 13.5388 52.832V54.832C14.1032 54.832 14.6421 54.703 15.132 54.4281L14.1535 52.6839ZM13.5388 52.832C13.2437 52.832 13.1339 52.751 13.0736 52.6857L11.604 54.0423C12.1197 54.601 12.8099 54.832 13.5388 54.832V52.832ZM13.0914 52.7055C13.0178 52.6215 12.9188 52.4401 12.9188 52.032H10.9188C10.9188 52.7599 11.0997 53.4665 11.5862 54.0225L13.0914 52.7055ZM12.9188 52.032V49.632H10.9188V52.032H12.9188ZM12.9188 49.632C12.9188 49.4815 12.9049 49.1199 12.6517 48.8033L11.0899 50.0527C10.9858 49.9226 10.9477 49.7989 10.9334 49.738C10.9185 49.675 10.9188 49.6346 10.9188 49.632H12.9188ZM12.6517 48.8033C12.3436 48.4183 11.9146 48.368 11.7028 48.368V50.368C11.651 50.368 11.334 50.3577 11.0899 50.0527L12.6517 48.8033ZM11.7028 48.368H11.2108V50.368H11.7028V48.368ZM12.1637 49.0648L12.0797 48.8008L10.1739 49.4072L10.2579 49.6712L12.1637 49.0648ZM11.8488 49.7959C11.9372 49.7036 12.0537 49.6186 12.2126 49.5464L11.385 47.7256C11.0158 47.8934 10.6844 48.1204 10.4048 48.4121L11.8488 49.7959ZM12.2024 49.5509C12.3868 49.4696 12.4953 49.456 12.5428 49.456V47.456C12.1423 47.456 11.7548 47.5624 11.3951 47.7211L12.2024 49.5509ZM12.5428 49.456C12.4919 49.456 12.4158 49.448 12.3278 49.4145C12.2371 49.3799 12.1547 49.3261 12.0877 49.2591L13.5019 47.8449C13.2221 47.5651 12.8691 47.456 12.5428 47.456V49.456ZM12.1808 49.3414C12.104 49.2816 12.0266 49.1943 11.972 49.0791C11.9183 48.9655 11.9028 48.8591 11.9028 48.78H13.9028C13.9028 48.3942 13.7388 48.0194 13.4087 47.7626L12.1808 49.3414ZM11.9028 48.78V51.78H13.9028V48.78H11.9028ZM11.9028 51.78C11.9028 52.3259 12.0106 52.9111 12.3805 53.3818L13.9531 52.1462C13.9709 52.1689 13.9028 52.0981 13.9028 51.78H11.9028ZM12.3805 53.3818C12.7763 53.8856 13.3404 54.1 13.9228 54.1V52.1C13.8726 52.1 13.8702 52.0916 13.8939 52.1022C13.9053 52.1073 13.9182 52.1148 13.9305 52.1244C13.9427 52.134 13.9501 52.1423 13.9531 52.1462L12.3805 53.3818ZM13.9228 54.1C14.6947 54.1 15.3825 53.7957 15.8606 53.1628L14.2649 51.9572C14.1991 52.0443 14.1269 52.1 13.9228 52.1V54.1ZM15.8606 53.1628C16.3114 52.5662 16.4708 51.8145 16.4708 51.036H14.4708C14.4708 51.5695 14.3581 51.8338 14.2649 51.9572L15.8606 53.1628ZM16.4708 51.036C16.4708 50.4257 16.4474 49.9131 16.3852 49.5396L14.4124 49.8684C14.4461 50.0709 14.4708 50.4463 14.4708 51.036H16.4708ZM16.3852 49.5396C16.3076 49.0742 16.1125 48.6534 15.8197 48.2873L14.2579 49.5367C14.349 49.6506 14.394 49.7578 14.4124 49.8684L16.3852 49.5396ZM15.8525 48.3308L15.7325 48.1628L14.105 49.3252L14.225 49.4932L15.8525 48.3308ZM15.7114 49.3537L15.8314 49.1977L14.2462 47.9783L14.1262 48.1343L15.7114 49.3537ZM15.1374 49.5831L16.4694 49.4511L16.2722 47.4609L14.9402 47.5929L15.1374 49.5831ZM15.3708 48.456V54.24H17.3708V48.456H15.3708ZM15.3708 54.24C15.3708 54.9729 15.1935 55.3933 14.974 55.6412L16.4715 56.9668C17.1161 56.2387 17.3708 55.2831 17.3708 54.24H15.3708ZM14.974 55.6412C14.7597 55.8833 14.4614 56.036 13.9588 56.036V58.036C14.9442 58.036 15.8219 57.7007 16.4715 56.9668L14.974 55.6412ZM21.6002 53.88L20.8476 54.5385L20.8545 54.5465L20.8617 54.5543L21.6002 53.88ZM21.3482 49.272H22.3482V48.272H21.3482V49.272ZM20.4002 49.272H19.4002V50.272H20.4002V49.272ZM20.4482 48.9L21.3164 49.3961L21.3302 49.372L21.3426 49.3472L20.4482 48.9ZM20.6642 48.756L20.4216 47.7859L20.4055 47.7899L20.3894 47.7945L20.6642 48.756ZM21.4802 48.276L20.6664 47.6948L20.6664 47.6948L21.4802 48.276ZM21.8402 47.388L22.8173 47.6004L22.825 47.5652L22.8301 47.5294L21.8402 47.388ZM21.9482 47.184L22.3421 48.1031L22.3691 48.0916L22.3954 48.0784L21.9482 47.184ZM22.3562 47.136H23.3562V46.136H22.3562V47.136ZM22.3562 48.6H21.3562V49.6H22.3562V48.6ZM23.7602 48.6H24.7602V47.6H23.7602V48.6ZM23.6882 49.008L22.7597 48.6366L22.7488 48.6639L22.7395 48.6918L23.6882 49.008ZM23.5202 49.272V50.272H23.8633L24.1341 50.0614L23.5202 49.272ZM22.3562 49.272V48.272H21.3562V49.272H22.3562ZM22.4402 53.268L21.5764 53.7719L21.6018 53.8154L21.6314 53.8562L22.4402 53.268ZM23.4962 53.052L24.3122 52.474L23.6797 51.5811L22.8472 52.2912L23.4962 53.052ZM23.7002 53.34L24.4938 53.9484L24.9422 53.3635L24.5162 52.762L23.7002 53.34ZM22.2962 53.156C22.2514 53.156 22.2478 53.1491 22.2688 53.1574C22.2791 53.1615 22.2922 53.1681 22.3061 53.1777C22.32 53.1872 22.3309 53.1973 22.3386 53.2057L20.8617 54.5543C21.2548 54.9848 21.7767 55.156 22.2962 55.156V53.156ZM22.3527 53.2215C22.3645 53.2349 22.3659 53.2435 22.3627 53.2336C22.3585 53.2205 22.3482 53.1799 22.3482 53.1H20.3482C20.3482 53.5992 20.4788 54.1171 20.8476 54.5385L22.3527 53.2215ZM22.3482 53.1V49.272H20.3482V53.1H22.3482ZM21.3482 48.272H20.4002V50.272H21.3482V48.272ZM21.4002 49.272C21.4002 49.2375 21.4009 49.2109 21.4019 49.1913C21.4029 49.1713 21.404 49.1626 21.4039 49.163C21.4039 49.1635 21.4033 49.1678 21.4019 49.1754C21.4005 49.1829 21.3979 49.1956 21.3934 49.2124C21.389 49.229 21.3818 49.253 21.3706 49.2823C21.3595 49.3112 21.3423 49.3507 21.3164 49.3961L19.5799 48.4039C19.4633 48.6079 19.4324 48.814 19.4204 48.907C19.4048 49.0275 19.4002 49.1533 19.4002 49.272H21.4002ZM21.3426 49.3472C21.266 49.5004 21.1594 49.5957 21.0809 49.6481C21.0068 49.6974 20.9503 49.7143 20.9389 49.7175L20.3894 47.7945C20.1718 47.8567 19.7711 48.0181 19.5537 48.4528L21.3426 49.3472ZM20.9067 49.7261C21.4221 49.5973 21.9461 49.3441 22.2939 48.8572L20.6664 47.6948C20.6942 47.6559 20.6742 47.7227 20.4216 47.7859L20.9067 49.7261ZM22.2939 48.8572C22.5562 48.49 22.7184 48.0553 22.8173 47.6004L20.863 47.1756C20.8019 47.4567 20.7241 47.614 20.6664 47.6948L22.2939 48.8572ZM22.8301 47.5294C22.8288 47.5389 22.8179 47.6171 22.7629 47.7209C22.7027 47.8347 22.5743 48.0036 22.3421 48.1031L21.5542 46.2649C20.9786 46.5116 20.8743 47.0783 20.8502 47.2466L22.8301 47.5294ZM22.3954 48.0784C22.3559 48.0982 22.3224 48.111 22.2987 48.1191C22.2746 48.1273 22.2554 48.1324 22.243 48.1354C22.2195 48.141 22.2082 48.1419 22.215 48.1412C22.2206 48.1405 22.235 48.1391 22.2601 48.1379C22.2849 48.1368 22.3166 48.136 22.3562 48.136V46.136C22.2309 46.136 22.1025 46.1406 21.9813 46.1548C21.8835 46.1664 21.6925 46.1938 21.5009 46.2896L22.3954 48.0784ZM21.3562 47.136V48.6H23.3562V47.136H21.3562ZM22.3562 49.6H23.7602V47.6H22.3562V49.6ZM22.7602 48.6C22.7602 48.6468 22.7529 48.6536 22.7597 48.6366L24.6166 49.3794C24.7194 49.1224 24.7602 48.8572 24.7602 48.6H22.7602ZM22.7395 48.6918C22.7401 48.69 22.7485 48.6649 22.7725 48.6271C22.7973 48.5881 22.8398 48.5343 22.9062 48.4826L24.1341 50.0614C24.4115 49.8456 24.5577 49.5615 24.6368 49.3242L22.7395 48.6918ZM23.5202 48.272H22.3562V50.272H23.5202V48.272ZM21.3562 49.272V52.788H23.3562V49.272H21.3562ZM21.3562 52.788C21.3562 53.0428 21.3787 53.4329 21.5764 53.7719L23.3039 52.7641C23.3319 52.8121 23.3466 52.8509 23.3536 52.8722C23.3607 52.8939 23.3625 52.9056 23.3622 52.9036C23.3619 52.902 23.3603 52.8918 23.3588 52.8713C23.3573 52.851 23.3562 52.8235 23.3562 52.788H21.3562ZM21.6314 53.8562C21.9514 54.2962 22.4283 54.4 22.7642 54.4V52.4C22.7802 52.4 22.8503 52.4017 22.9465 52.4409C23.052 52.4839 23.1634 52.5623 23.2489 52.6798L21.6314 53.8562ZM22.7642 54.4C23.3309 54.4 23.8021 54.1054 24.1451 53.8128L22.8472 52.2912C22.7578 52.3675 22.7019 52.3993 22.6798 52.4099C22.6592 52.4197 22.6912 52.4 22.7642 52.4V54.4ZM22.6801 53.63L22.8841 53.918L24.5162 52.762L24.3122 52.474L22.6801 53.63ZM22.9066 52.7316C22.8034 52.8661 22.6798 52.9747 22.5292 53.0614L23.5271 54.7946C23.9045 54.5773 24.2289 54.2939 24.4938 53.9484L22.9066 52.7316ZM22.5292 53.0614C22.3645 53.1562 22.2931 53.156 22.2962 53.156V55.156C22.7472 55.156 23.1638 55.0038 23.5271 54.7946L22.5292 53.0614ZM28.1716 53.88L27.419 54.5385L27.4259 54.5465L27.4331 54.5543L28.1716 53.88ZM27.9196 49.272H28.9196V48.272H27.9196V49.272ZM26.9716 49.272H25.9716V50.272H26.9716V49.272ZM27.0196 48.9L27.8878 49.3961L27.9016 49.372L27.914 49.3472L27.0196 48.9ZM27.2356 48.756L26.993 47.7859L26.9769 47.7899L26.9608 47.7945L27.2356 48.756ZM28.0516 48.276L27.2378 47.6948L27.2378 47.6948L28.0516 48.276ZM28.4116 47.388L29.3887 47.6004L29.3964 47.5652L29.4015 47.5294L28.4116 47.388ZM28.5196 47.184L28.9135 48.1031L28.9405 48.0916L28.9668 48.0784L28.5196 47.184ZM28.9276 47.136H29.9276V46.136H28.9276V47.136ZM28.9276 48.6H27.9276V49.6H28.9276V48.6ZM30.3316 48.6H31.3316V47.6H30.3316V48.6ZM30.2596 49.008L29.3311 48.6366L29.3202 48.6639L29.3109 48.6918L30.2596 49.008ZM30.0916 49.272V50.272H30.4347L30.7055 50.0614L30.0916 49.272ZM28.9276 49.272V48.272H27.9276V49.272H28.9276ZM29.0116 53.268L28.1478 53.7719L28.1732 53.8154L28.2028 53.8562L29.0116 53.268ZM30.0676 53.052L30.8836 52.474L30.2511 51.5811L29.4186 52.2912L30.0676 53.052ZM30.2716 53.34L31.0652 53.9484L31.5136 53.3635L31.0876 52.762L30.2716 53.34ZM28.8676 53.156C28.8228 53.156 28.8192 53.1491 28.8402 53.1574C28.8505 53.1615 28.8636 53.1681 28.8775 53.1777C28.8914 53.1872 28.9023 53.1973 28.91 53.2057L27.4331 54.5543C27.8262 54.9848 28.3481 55.156 28.8676 55.156V53.156ZM28.9241 53.2215C28.9359 53.2349 28.9374 53.2435 28.9341 53.2336C28.9299 53.2205 28.9196 53.1799 28.9196 53.1H26.9196C26.9196 53.5992 27.0502 54.1171 27.419 54.5385L28.9241 53.2215ZM28.9196 53.1V49.272H26.9196V53.1H28.9196ZM27.9196 48.272H26.9716V50.272H27.9196V48.272ZM27.9716 49.272C27.9716 49.2375 27.9723 49.2109 27.9733 49.1913C27.9743 49.1713 27.9754 49.1626 27.9753 49.163C27.9753 49.1635 27.9747 49.1678 27.9733 49.1754C27.9719 49.1829 27.9693 49.1956 27.9648 49.2124C27.9604 49.229 27.9532 49.253 27.942 49.2823C27.9309 49.3112 27.9137 49.3507 27.8878 49.3961L26.1513 48.4039C26.0347 48.6079 26.0038 48.814 25.9918 48.907C25.9762 49.0275 25.9716 49.1533 25.9716 49.272H27.9716ZM27.914 49.3472C27.8374 49.5004 27.7308 49.5957 27.6523 49.6481C27.5783 49.6974 27.5217 49.7143 27.5103 49.7175L26.9608 47.7945C26.7432 47.8567 26.3425 48.0181 26.1251 48.4528L27.914 49.3472ZM27.4781 49.7261C27.9935 49.5973 28.5176 49.3441 28.8653 48.8572L27.2378 47.6948C27.2656 47.6559 27.2456 47.7227 26.993 47.7859L27.4781 49.7261ZM28.8653 48.8572C29.1276 48.49 29.2898 48.0553 29.3887 47.6004L27.4344 47.1756C27.3733 47.4567 27.2955 47.614 27.2378 47.6948L28.8653 48.8572ZM29.4015 47.5294C29.4002 47.5389 29.3893 47.6171 29.3344 47.7209C29.2741 47.8347 29.1457 48.0036 28.9135 48.1031L28.1256 46.2649C27.55 46.5116 27.4457 47.0783 27.4216 47.2466L29.4015 47.5294ZM28.9668 48.0784C28.9273 48.0982 28.8938 48.111 28.8701 48.1191C28.846 48.1273 28.8268 48.1324 28.8144 48.1354C28.7909 48.141 28.7796 48.1419 28.7864 48.1412C28.792 48.1405 28.8064 48.1391 28.8315 48.1379C28.8563 48.1368 28.888 48.136 28.9276 48.136V46.136C28.8023 46.136 28.6739 46.1406 28.5527 46.1548C28.4549 46.1664 28.2639 46.1938 28.0723 46.2896L28.9668 48.0784ZM27.9276 47.136V48.6H29.9276V47.136H27.9276ZM28.9276 49.6H30.3316V47.6H28.9276V49.6ZM29.3316 48.6C29.3316 48.6468 29.3243 48.6536 29.3311 48.6366L31.188 49.3794C31.2908 49.1224 31.3316 48.8572 31.3316 48.6H29.3316ZM29.3109 48.6918C29.3115 48.69 29.3199 48.6649 29.3439 48.6271C29.3687 48.5881 29.4112 48.5343 29.4776 48.4826L30.7055 50.0614C30.9829 49.8456 31.1292 49.5615 31.2082 49.3242L29.3109 48.6918ZM30.0916 48.272H28.9276V50.272H30.0916V48.272ZM27.9276 49.272V52.788H29.9276V49.272H27.9276ZM27.9276 52.788C27.9276 53.0428 27.9501 53.4329 28.1478 53.7719L29.8753 52.7641C29.9033 52.8121 29.918 52.8509 29.925 52.8722C29.9321 52.8939 29.9339 52.9056 29.9336 52.9036C29.9333 52.902 29.9317 52.8918 29.9302 52.8713C29.9287 52.851 29.9276 52.8235 29.9276 52.788H27.9276ZM28.2028 53.8562C28.5228 54.2962 28.9997 54.4 29.3356 54.4V52.4C29.3516 52.4 29.4217 52.4017 29.5179 52.4409C29.6234 52.4839 29.7349 52.5623 29.8203 52.6798L28.2028 53.8562ZM29.3356 54.4C29.9023 54.4 30.3735 54.1054 30.7165 53.8128L29.4186 52.2912C29.3292 52.3675 29.2733 52.3993 29.2512 52.4099C29.2306 52.4197 29.2626 52.4 29.3356 52.4V54.4ZM29.2515 53.63L29.4555 53.918L31.0876 52.762L30.8836 52.474L29.2515 53.63ZM29.478 52.7316C29.3748 52.8661 29.2512 52.9747 29.1006 53.0614L30.0985 54.7946C30.4759 54.5773 30.8003 54.2939 31.0652 53.9484L29.478 52.7316ZM29.1006 53.0614C28.9359 53.1562 28.8645 53.156 28.8676 53.156V55.156C29.3186 55.156 29.7352 55.0038 30.0985 54.7946L29.1006 53.0614ZM34.551 53.784L33.9714 54.599L33.9775 54.6033L33.9837 54.6075L34.551 53.784ZM34.263 52.188L34.9526 52.9121L34.9534 52.9114L34.263 52.188ZM35.079 51.972L35.5262 51.0776L35.5262 51.0776L35.079 51.972ZM35.079 52.284L35.9981 52.6779L36.0029 52.6667L36.0074 52.6554L35.079 52.284ZM35.319 53.376L34.7093 54.1686L34.7165 54.1742L34.7237 54.1796L35.319 53.376ZM36.783 53.376L36.1428 52.6078L36.1428 52.6078L36.783 53.376ZM36.759 52.176L36.1539 52.9722L36.1614 52.9778L36.169 52.9834L36.759 52.176ZM35.883 51.708L35.4865 52.6261L35.4984 52.6311L35.883 51.708ZM34.995 51.276L34.4893 52.1387L34.4956 52.1424L34.502 52.146L34.995 51.276ZM34.395 50.736L33.595 51.336L33.595 51.336L34.395 50.736ZM37.407 48.768L36.8955 49.6273L36.9031 49.6318L36.9108 49.6362L37.407 48.768ZM37.659 50.256L38.3823 50.9465L38.3823 50.9465L37.659 50.256ZM36.843 50.148L35.9747 49.6519L35.961 49.676L35.9485 49.7008L36.843 50.148ZM36.663 49.188L36.0686 49.9922L36.0801 50.0007L36.0919 50.0089L36.663 49.188ZM35.331 49.2L34.6977 48.426L34.6889 48.4333L34.6802 48.4407L35.331 49.2ZM35.415 50.436L34.7971 51.2223L34.806 51.2293L34.815 51.236L35.415 50.436ZM36.363 50.916L36.7594 49.9979L36.736 49.9878L36.7121 49.9789L36.363 50.916ZM37.239 51.336L37.722 50.4604L37.722 50.4604L37.239 51.336ZM37.827 51.828L37.0461 52.4527L37.0523 52.4605L37.0587 52.4682L37.827 51.828ZM37.467 53.712L38.0696 54.51L38.0721 54.5082L37.467 53.712ZM35.907 53.156C35.5157 53.156 35.2746 53.0682 35.1183 52.9605L33.9837 54.6075C34.5473 54.9958 35.2102 55.156 35.907 55.156V53.156ZM35.1305 52.969C35.0538 52.9145 35.031 52.8772 35.0251 52.8664C35.0207 52.8583 35.011 52.8393 35.011 52.788H33.011C33.011 53.5498 33.3732 54.1735 33.9714 54.599L35.1305 52.969ZM35.011 52.788C35.011 52.7868 35.0107 52.8102 34.996 52.8452C34.9809 52.881 34.9614 52.9038 34.9526 52.9121L33.5733 51.4639C33.1996 51.8198 33.011 52.2849 33.011 52.788H35.011ZM34.9534 52.9114C34.952 52.9127 34.9476 52.9167 34.9401 52.9214C34.9325 52.9262 34.9244 52.9303 34.9167 52.9332C34.913 52.9346 34.9099 52.9356 34.9076 52.9362C34.9054 52.9368 34.9042 52.937 34.9042 52.937C34.9042 52.937 34.9101 52.936 34.923 52.936V50.936C34.4257 50.936 33.9511 51.1032 33.5725 51.4646L34.9534 52.9114ZM34.923 52.936C34.8307 52.936 34.7287 52.9149 34.6318 52.8664L35.5262 51.0776C35.3332 50.9811 35.1273 50.936 34.923 50.936V52.936ZM34.6318 52.8664C34.5622 52.8316 34.4403 52.7572 34.333 52.614C34.2151 52.4569 34.151 52.2644 34.151 52.068H36.151C36.151 51.5187 35.7779 51.2034 35.5262 51.0776L34.6318 52.8664ZM34.151 52.068C34.151 52.0291 34.1533 51.9968 34.1557 51.9736C34.158 51.9498 34.161 51.9298 34.1635 51.9149C34.1683 51.8858 34.1735 51.8639 34.1763 51.8525C34.1819 51.8303 34.186 51.8187 34.1843 51.8238C34.1813 51.8328 34.1715 51.8601 34.1505 51.9126L36.0074 52.6554C36.0344 52.5879 36.0607 52.5192 36.0817 52.4562C36.092 52.4253 36.1051 52.3837 36.1166 52.3375C36.1231 52.3114 36.151 52.2031 36.151 52.068H34.151ZM34.1598 51.8901C34.0446 52.1589 34.007 52.4369 34.007 52.692H36.007C36.007 52.6613 36.0093 52.6462 36.0098 52.6438C36.0101 52.6416 36.0081 52.6547 35.9981 52.6779L34.1598 51.8901ZM34.007 52.692C34.007 53.2532 34.2214 53.7933 34.7093 54.1686L35.9287 52.5834C35.9362 52.5892 35.9484 52.6 35.9618 52.6166C35.9753 52.6334 35.9865 52.6518 35.9948 52.67C36.012 52.7077 36.007 52.7224 36.007 52.692H34.007ZM34.7237 54.1796C35.1086 54.4646 35.5565 54.616 36.039 54.616V52.616C35.9935 52.616 35.9613 52.6074 35.9142 52.5724L34.7237 54.1796ZM36.039 54.616C36.5244 54.616 37.0148 54.4845 37.4232 54.1442L36.1428 52.6078C36.1493 52.6024 36.1535 52.6019 36.146 52.6043C36.1361 52.6075 36.1037 52.616 36.039 52.616V54.616ZM37.4232 54.1442C37.8495 53.789 38.071 53.2965 38.071 52.752H36.071C36.071 52.7524 36.0716 52.723 36.091 52.6809C36.1107 52.6382 36.1352 52.6141 36.1428 52.6078L37.4232 54.1442ZM38.071 52.752C38.071 52.1622 37.7817 51.6849 37.349 51.3686L36.169 52.9834C36.1745 52.9875 36.1439 52.9662 36.1137 52.9103C36.0815 52.8509 36.071 52.7916 36.071 52.752H38.071ZM37.3641 51.3798C37.0666 51.1537 36.686 50.9593 36.2676 50.7849L35.4984 52.6311C35.8479 52.7767 36.0514 52.8943 36.1539 52.9722L37.3641 51.3798ZM36.2794 50.7899C35.9488 50.6472 35.6873 50.5189 35.488 50.406L34.502 52.146C34.7827 52.3051 35.1132 52.4648 35.4865 52.6261L36.2794 50.7899ZM35.5007 50.4133C35.388 50.3472 35.2866 50.2582 35.195 50.136L33.595 51.336C33.8393 51.6618 34.138 51.9328 34.4893 52.1387L35.5007 50.4133ZM35.195 50.136C35.1749 50.1092 35.143 50.0559 35.143 49.92H33.143C33.143 50.4241 33.279 50.9148 33.595 51.336L35.195 50.136ZM35.143 49.92C35.143 49.8506 35.1485 49.7909 35.2931 49.6862L34.1209 48.0658C33.5135 48.5051 33.143 49.1414 33.143 49.92H35.143ZM35.2931 49.6862C35.4634 49.563 35.7175 49.468 36.123 49.468V47.468C35.3925 47.468 34.7025 47.645 34.1209 48.0658L35.2931 49.6862ZM36.123 49.468C36.5205 49.468 36.7572 49.545 36.8955 49.6273L37.9185 47.9087C37.3848 47.591 36.7654 47.468 36.123 47.468V49.468ZM36.9108 49.6362C36.9393 49.6525 36.9514 49.6631 36.9533 49.6649C36.9547 49.6661 36.9474 49.6596 36.9377 49.6441C36.9277 49.6282 36.9199 49.6102 36.9151 49.593C36.9106 49.5763 36.911 49.568 36.911 49.572H38.911C38.911 48.8181 38.5037 48.2429 37.9031 47.8998L36.9108 49.6362ZM36.911 49.572C36.911 49.5921 36.9095 49.604 36.9086 49.6091C36.9078 49.614 36.9076 49.6129 36.9096 49.6073C36.9118 49.6015 36.9154 49.5936 36.9207 49.585C36.9261 49.5764 36.9316 49.5698 36.9356 49.5655L38.3823 50.9465C38.7548 50.5563 38.911 50.0674 38.911 49.572H36.911ZM36.9356 49.5655C36.9405 49.5604 36.9488 49.5528 36.9607 49.5447C36.9726 49.5366 36.985 49.5301 36.9966 49.5255C37.0208 49.5158 37.0264 49.52 36.999 49.52V51.52C37.5088 51.52 38.0024 51.3444 38.3823 50.9465L36.9356 49.5655ZM36.999 49.52C37.01 49.52 37.0489 49.5206 37.1057 49.5329C37.1619 49.5451 37.2577 49.5735 37.364 49.6426C37.4769 49.716 37.5872 49.8266 37.6638 49.9759C37.7385 50.1217 37.759 50.2607 37.759 50.364H35.759C35.759 50.7183 35.9211 51.0901 36.274 51.3194C36.5523 51.5004 36.8426 51.52 36.999 51.52V49.52ZM37.759 50.364C37.759 50.4297 37.7521 50.482 37.7467 50.5145C37.741 50.5485 37.7345 50.5753 37.7298 50.5925C37.7209 50.6255 37.7129 50.646 37.712 50.6484C37.7101 50.6533 37.7159 50.6382 37.7374 50.5952L35.9485 49.7008C35.9141 49.7698 35.8779 49.8467 35.848 49.9236C35.835 49.9569 35.759 50.1407 35.759 50.364H37.759ZM37.7112 50.6441C37.8713 50.364 37.939 50.0613 37.939 49.764H35.939C35.939 49.7616 35.9393 49.7476 35.9448 49.7255C35.9505 49.7027 35.9603 49.6771 35.9747 49.6519L37.7112 50.6441ZM37.939 49.764C37.939 49.2345 37.7281 48.7108 37.234 48.3671L36.0919 50.0089C36.0497 49.9795 36.0009 49.9285 35.9682 49.8601C35.9378 49.7967 35.939 49.7557 35.939 49.764H37.939ZM37.2574 48.3838C36.8987 48.1187 36.4817 47.984 36.039 47.984V49.984C36.048 49.984 36.0533 49.9846 36.0557 49.985C36.0581 49.9854 36.0587 49.9856 36.0582 49.9855C36.0578 49.9853 36.0578 49.9853 36.0588 49.9858C36.0599 49.9864 36.0631 49.9881 36.0686 49.9922L37.2574 48.3838ZM36.039 47.984C35.5826 47.984 35.1002 48.0967 34.6977 48.426L35.9642 49.974C35.9546 49.9818 35.9456 49.9875 35.9385 49.9912C35.9316 49.9948 35.9288 49.9954 35.9318 49.9945C35.9385 49.9924 35.9708 49.984 36.039 49.984V47.984ZM34.6802 48.4407C34.2785 48.785 34.079 49.2562 34.079 49.764H36.079C36.079 49.7707 36.0772 49.8072 36.055 49.8569C36.0322 49.9079 36.0015 49.9423 35.9818 49.9593L34.6802 48.4407ZM34.079 49.764C34.079 50.3593 34.3451 50.8671 34.7971 51.2223L36.0328 49.6497C36.0209 49.6403 36.0388 49.6517 36.0574 49.6888C36.066 49.706 36.0719 49.7233 36.0754 49.7387C36.0788 49.7539 36.079 49.763 36.079 49.764H34.079ZM34.815 51.236C35.1457 51.4841 35.56 51.684 36.0139 51.8531L36.7121 49.9789C36.35 49.844 36.1322 49.7239 36.015 49.636L34.815 51.236ZM35.9665 51.8341C36.3008 51.9784 36.5614 52.1043 36.7559 52.2116L37.722 50.4604C37.4525 50.3117 37.1292 50.1576 36.7594 49.9979L35.9665 51.8341ZM36.7559 52.2116C36.8772 52.2785 36.9708 52.3586 37.0461 52.4527L38.6078 51.2033C38.3631 50.8974 38.0647 50.6495 37.722 50.4604L36.7559 52.2116ZM37.0587 52.4682C37.0607 52.4705 37.0619 52.4722 37.0626 52.4732C37.0634 52.4743 37.0637 52.4748 37.0637 52.4749C37.0638 52.475 37.0637 52.4748 37.0636 52.4746C37.0634 52.4743 37.0634 52.4741 37.0634 52.4741C37.0634 52.4741 37.0635 52.4746 37.0638 52.4756C37.0641 52.4767 37.0645 52.4785 37.0649 52.4812C37.0658 52.4867 37.067 52.4966 37.067 52.512H39.067C39.067 52.0283 38.9138 51.5702 38.5952 51.1878L37.0587 52.4682ZM37.067 52.512C37.067 52.6908 37.0169 52.7981 36.8619 52.9158L38.0721 54.5082C38.7171 54.0179 39.067 53.3252 39.067 52.512H37.067ZM36.8644 52.914C36.6941 53.0425 36.4067 53.156 35.907 53.156V55.156C36.7032 55.156 37.4559 54.9735 38.0696 54.51L36.8644 52.914ZM45.1655 53.388L46.0486 52.9188L46.0378 52.8984L46.026 52.8786L45.1655 53.388ZM44.2775 51.888L45.138 51.3786L44.4407 50.2006L43.5306 51.2231L44.2775 51.888ZM43.3535 53.496L42.4853 53.9921L42.529 54.0686L42.5853 54.1362L43.3535 53.496ZM43.5215 53.664L42.8572 54.4114L42.8713 54.4239L42.8858 54.4359L43.5215 53.664ZM43.7255 53.832L44.5393 54.4132L45.0819 53.6536L44.3612 53.0601L43.7255 53.832ZM43.6055 54V55H44.1202L44.4193 54.5812L43.6055 54ZM41.9135 54L41.0481 54.501L41.337 55H41.9135V54ZM41.7815 53.772L41.0813 53.0581L40.5273 53.6015L40.9161 54.273L41.7815 53.772ZM44.0495 51.48L44.7729 52.1705L45.2945 51.6241L44.9115 50.973L44.0495 51.48ZM42.8495 49.44L41.9812 49.9362L41.9876 49.947L42.8495 49.44ZM42.6455 49.212L42.0908 50.044L42.1245 50.0665L42.1599 50.0862L42.6455 49.212ZM41.9855 49.272L41.1929 49.8817L41.6784 50.5128L42.4022 50.1811L41.9855 49.272ZM41.7455 48.96L41.0121 48.2802L40.4377 48.9L40.9529 49.5697L41.7455 48.96ZM43.9055 49.212L43.0228 49.6818L43.0329 49.7008L43.0438 49.7193L43.9055 49.212ZM44.7815 50.7L43.9198 51.2073L44.6246 52.4045L45.5361 51.3562L44.7815 50.7ZM45.6935 49.104L44.8615 49.6587L44.8615 49.6587L45.6935 49.104ZM45.5375 48.924L46.2446 48.2169L46.1827 48.155L46.111 48.1048L45.5375 48.924ZM45.2975 48.756L44.5627 48.0777L43.7863 48.9188L44.7241 49.5752L45.2975 48.756ZM45.4415 48.6V47.6H45.0037L44.7067 47.9217L45.4415 48.6ZM47.1455 48.6L48.04 48.1528L47.7636 47.6H47.1455V48.6ZM47.2535 48.816L47.9606 49.5231L48.4703 49.0135L48.148 48.3688L47.2535 48.816ZM46.9655 49.104L47.665 49.8188L47.6726 49.8111L46.9655 49.104ZM45.0095 51.108L44.274 50.4305L43.7707 50.9769L44.1485 51.6166L45.0095 51.108ZM46.2215 53.16L47.1039 52.6894L47.0936 52.6702L47.0826 52.6514L46.2215 53.16ZM46.4135 53.4L45.8835 54.248L45.9054 54.2616L45.9279 54.2742L46.4135 53.4ZM47.0735 53.328L47.8629 52.7141L47.3 51.9904L46.5303 52.4884L47.0735 53.328ZM47.3255 53.652L48.0326 54.3591L48.6569 53.7349L48.1149 53.0381L47.3255 53.652ZM46.8215 54.036L46.3743 53.1416L46.365 53.1462L46.3558 53.1511L46.8215 54.036ZM46.3175 53.156C46.2515 53.156 46.2276 53.1422 46.2122 53.1319C46.189 53.1165 46.1265 53.0653 46.0486 52.9188L44.2824 53.8572C44.6925 54.6291 45.3817 55.156 46.3175 55.156V53.156ZM46.026 52.8786L45.138 51.3786L43.417 52.3974L44.305 53.8974L46.026 52.8786ZM43.5306 51.2231C43.1951 51.6 42.9206 51.9358 42.7241 52.2221C42.6262 52.3646 42.5334 52.5155 42.4616 52.6679C42.399 52.8007 42.3055 53.0302 42.3055 53.304H44.3055C44.3055 53.4698 44.2525 53.5593 44.271 53.5201C44.2802 53.5005 44.3089 53.4474 44.373 53.3539C44.5005 53.1682 44.7119 52.904 45.0245 52.5529L43.5306 51.2231ZM42.3055 53.304C42.3055 53.5293 42.3572 53.768 42.4853 53.9921L44.2218 52.9999C44.2858 53.112 44.3055 53.2227 44.3055 53.304H42.3055ZM42.5853 54.1362C42.6694 54.2371 42.7656 54.33 42.8572 54.4114L44.1859 52.9166C44.1615 52.8949 44.1442 52.8785 44.1326 52.8669C44.1207 52.8549 44.1181 52.8514 44.1218 52.8558L42.5853 54.1362ZM42.8858 54.4359L43.0898 54.6039L44.3612 53.0601L44.1572 52.8921L42.8858 54.4359ZM42.9118 53.2508L42.7918 53.4188L44.4193 54.5812L44.5393 54.4132L42.9118 53.2508ZM43.6055 53H41.9135V55H43.6055V53ZM42.779 53.499L42.647 53.271L40.9161 54.273L41.0481 54.501L42.779 53.499ZM42.4818 54.4859C43.3281 53.6557 44.092 52.8838 44.7729 52.1705L43.3262 50.7895C42.6631 51.4842 41.915 52.2403 41.0813 53.0581L42.4818 54.4859ZM44.9115 50.973L43.7115 48.933L41.9876 49.947L43.1876 51.987L44.9115 50.973ZM43.7178 48.9439C43.61 48.7553 43.429 48.5033 43.1312 48.3378L42.1599 50.0862C42.0783 50.0409 42.0286 49.9919 42.0053 49.9658C41.982 49.9398 41.9755 49.9259 41.9813 49.9361L43.7178 48.9439ZM43.2002 48.38C42.9462 48.2106 42.6645 48.14 42.3935 48.14V50.14C42.3145 50.14 42.2008 50.1174 42.0908 50.044L43.2002 48.38ZM42.3935 48.14C42.1974 48.14 42.026 48.1885 41.9237 48.2216C41.8057 48.2597 41.6853 48.3096 41.5689 48.3629L42.4022 50.1811C42.4385 50.1644 42.4684 50.1516 42.4924 50.1419C42.5166 50.1322 42.5319 50.1269 42.5394 50.1244C42.5429 50.1233 42.5433 50.1232 42.541 50.1239C42.5388 50.1245 42.5325 50.1261 42.5226 50.1281C42.5129 50.1301 42.4975 50.1329 42.4771 50.1353C42.4571 50.1376 42.4286 50.14 42.3935 50.14V48.14ZM42.7782 48.6623L42.5382 48.3503L40.9529 49.5697L41.1929 49.8817L42.7782 48.6623ZM42.479 49.6398C42.6377 49.4685 42.7226 49.468 42.7535 49.468V47.468C42.0485 47.468 41.4614 47.7955 41.0121 48.2802L42.479 49.6398ZM42.7535 49.468C42.8335 49.468 42.8631 49.485 42.877 49.494C42.8966 49.5067 42.9527 49.5501 43.0228 49.6818L44.7883 48.7422C44.5944 48.3779 44.3264 48.0493 43.9621 47.814C43.592 47.575 43.1775 47.468 42.7535 47.468V49.468ZM43.0438 49.7193L43.9198 51.2073L45.6433 50.1927L44.7673 48.7047L43.0438 49.7193ZM45.5361 51.3562C45.8673 50.9753 46.138 50.6367 46.3314 50.3489C46.4278 50.2056 46.5189 50.0545 46.5892 49.9025C46.6504 49.7701 46.7415 49.5424 46.7415 49.272H44.7415C44.7415 49.1096 44.7927 49.0224 44.7739 49.063C44.7642 49.084 44.7353 49.1384 44.6716 49.2331C44.5451 49.4213 44.3358 49.6887 44.0269 50.0438L45.5361 51.3562ZM46.7415 49.272C46.7415 49.033 46.6789 48.7793 46.5256 48.5493L44.8615 49.6587C44.7722 49.5247 44.7415 49.383 44.7415 49.272H46.7415ZM46.5256 48.5493C46.4395 48.4202 46.3337 48.3059 46.2446 48.2169L44.8304 49.6311C44.854 49.6547 44.868 49.6701 44.8748 49.6779C44.878 49.6816 44.8783 49.6821 44.8764 49.6797C44.8746 49.6774 44.8692 49.6703 44.8615 49.6587L46.5256 48.5493ZM46.111 48.1048L45.871 47.9368L44.7241 49.5752L44.9641 49.7432L46.111 48.1048ZM46.0323 49.4343L46.1763 49.2783L44.7067 47.9217L44.5627 48.0777L46.0323 49.4343ZM45.4415 49.6H47.1455V47.6H45.4415V49.6ZM46.2511 49.0472L46.3591 49.2632L48.148 48.3688L48.04 48.1528L46.2511 49.0472ZM46.5464 48.1089L46.2584 48.3969L47.6726 49.8111L47.9606 49.5231L46.5464 48.1089ZM46.2662 48.3892C45.5128 49.1264 44.8483 49.807 44.274 50.4305L45.7451 51.7855C46.2908 51.193 46.9303 50.5376 47.6649 49.8188L46.2662 48.3892ZM44.1485 51.6166L45.3605 53.6686L47.0826 52.6514L45.8706 50.5994L44.1485 51.6166ZM45.3392 53.6306C45.429 53.7989 45.5946 54.0674 45.8835 54.248L46.9435 52.552C47.0345 52.6089 47.0834 52.6666 47.0984 52.6853C47.115 52.7061 47.1157 52.7115 47.1039 52.6894L45.3392 53.6306ZM45.9279 54.2742C46.1826 54.4156 46.4474 54.46 46.6775 54.46V52.46C46.6997 52.46 46.7885 52.4644 46.8992 52.5258L45.9279 54.2742ZM46.6775 54.46C47.0436 54.46 47.3617 54.3326 47.6168 54.1676L46.5303 52.4884C46.5134 52.4994 46.5675 52.46 46.6775 52.46V54.46ZM46.2842 53.9419L46.5362 54.2659L48.1149 53.0381L47.8629 52.7141L46.2842 53.9419ZM46.6184 52.9449C46.491 53.0723 46.4087 53.1244 46.3743 53.1416L47.2687 54.9304C47.5543 54.7876 47.8081 54.5837 48.0326 54.3591L46.6184 52.9449ZM46.3558 53.1511C46.3542 53.1519 46.3529 53.1525 46.3499 53.1532C46.3466 53.154 46.3366 53.156 46.3175 53.156V55.156C46.652 55.156 46.9815 55.0818 47.2873 54.9209L46.3558 53.1511ZM52.3175 53.952L51.9837 54.8946L51.9837 54.8946L52.3175 53.952ZM51.3815 53.352L50.6304 54.0121L50.6359 54.0184L50.6416 54.0247L51.3815 53.352ZM51.3575 51.576L52.0512 52.2963L52.0517 52.2958L51.3575 51.576ZM52.3775 51.276L51.9303 52.1704L52.0285 52.2195L52.135 52.2461L52.3775 51.276ZM52.3295 51.552L51.4975 50.9973L51.4975 50.9973L52.3295 51.552ZM52.1615 51.876L51.2331 51.5046L51.2261 51.522L51.2198 51.5397L52.1615 51.876ZM52.5095 53.148L51.902 53.9424L51.9132 53.9507L52.5095 53.148ZM54.6335 53.064L53.9971 52.2926L53.9876 52.3006L54.6335 53.064ZM54.7055 50.796L53.9192 51.4138L53.9237 51.4195L53.9283 51.4252L54.7055 50.796ZM52.6415 50.352L52.8475 51.3305L52.8719 51.3254L52.896 51.3191L52.6415 50.352ZM52.2935 50.004L52.8935 50.804L52.9005 50.7987L52.9075 50.7934L52.2935 50.004ZM52.8095 49.848L52.9833 50.8328L52.9909 50.8314L52.8095 49.848ZM54.4535 49.116L53.678 48.4847L53.6763 48.4868L54.4535 49.116ZM54.4655 47.004L53.8039 47.7538L53.8102 47.7594L53.8166 47.7648L54.4655 47.004ZM52.6535 46.944L53.2911 47.7144L53.2937 47.7122L52.6535 46.944ZM52.3775 48.228L51.4412 48.5791L51.4549 48.6156L51.4713 48.6509L52.3775 48.228ZM52.5455 48.552L51.6818 49.0559L51.6915 49.0726L51.7019 49.0889L52.5455 48.552ZM51.5615 48.516L50.8544 49.2231L50.8609 49.2295L50.8674 49.2358L51.5615 48.516ZM51.9095 46.476L51.3688 45.6348L51.3688 45.6348L51.9095 46.476ZM55.7015 46.908L54.9333 47.5482L54.943 47.5598L54.9529 47.571L55.7015 46.908ZM55.6535 49.128L56.4141 49.7773L56.4218 49.7682L55.6535 49.128ZM54.4655 49.908L54.1144 48.9717L51.0027 50.1385L54.2416 50.8826L54.4655 49.908ZM55.8215 50.676L56.5911 50.0374L56.5911 50.0374L55.8215 50.676ZM55.5455 53.592L54.9414 52.7951L54.9352 52.7999L55.5455 53.592ZM53.5535 53.156C53.2181 53.156 52.9199 53.1045 52.6514 53.0094L51.9837 54.8946C52.4832 55.0715 53.0089 55.156 53.5535 55.156V53.156ZM52.6514 53.0094C52.4007 52.9206 52.2356 52.8048 52.1215 52.6793L50.6416 54.0247C51.0075 54.4272 51.4664 54.7114 51.9837 54.8946L52.6514 53.0094ZM52.1327 52.6919C52.0728 52.6238 52.0335 52.5435 52.0335 52.392H50.0335C50.0335 52.9925 50.2262 53.5522 50.6304 54.0121L52.1327 52.6919ZM52.0335 52.392C52.0335 52.3318 52.043 52.3075 52.0439 52.305C52.0442 52.3044 52.0444 52.3041 52.0445 52.3038C52.0446 52.3036 52.0446 52.3035 52.0446 52.3035C52.0446 52.3034 52.0446 52.3034 52.0446 52.3035C52.0446 52.3035 52.0446 52.3035 52.0446 52.3035C52.0447 52.3034 52.045 52.3029 52.0459 52.3019C52.0468 52.3008 52.0484 52.299 52.0512 52.2963L50.6639 50.8557C50.2276 51.2758 50.0335 51.8202 50.0335 52.392H52.0335ZM52.0517 52.2958C52.0784 52.27 52.101 52.252 52.1855 52.252V50.252C51.6141 50.252 51.0846 50.45 50.6634 50.8562L52.0517 52.2958ZM52.1855 52.252C52.21 52.252 52.2052 52.2532 52.1815 52.2503C52.1688 52.2487 52.1416 52.2448 52.105 52.2356C52.071 52.2271 52.007 52.2088 51.9303 52.1704L52.8247 50.3816C52.6565 50.2975 52.4989 50.2744 52.4296 50.2657C52.3418 50.2548 52.2571 50.252 52.1855 50.252V52.252ZM52.135 52.2461C51.8417 52.1728 51.6292 51.9733 51.5191 51.7532C51.4294 51.5737 51.4255 51.4202 51.4255 51.372H53.4255C53.4255 51.2678 53.4137 51.0703 53.308 50.8588C53.1819 50.6067 52.9453 50.3872 52.6201 50.3059L52.135 52.2461ZM51.4255 51.372C51.4255 51.2704 51.4415 51.191 51.4522 51.1471C51.4637 51.0997 51.4765 51.0631 51.485 51.0408C51.5015 50.9976 51.5163 50.9698 51.5192 50.9644C51.5255 50.9526 51.5219 50.9606 51.4975 50.9973L53.1616 52.1067C53.2011 52.0474 53.2456 51.9774 53.2839 51.9056C53.3027 51.8702 53.3296 51.8169 53.354 51.7527C53.3703 51.71 53.4255 51.5638 53.4255 51.372H51.4255ZM51.4975 50.9973C51.3908 51.1573 51.3037 51.3279 51.2331 51.5046L53.09 52.2474C53.1153 52.1841 53.1402 52.1387 53.1616 52.1067L51.4975 50.9973ZM51.2198 51.5397C51.1289 51.7941 51.1015 52.0569 51.1015 52.296H53.1015C53.1015 52.2508 53.1043 52.2218 53.1065 52.2064C53.1087 52.1908 53.1096 52.1946 53.1033 52.2123L51.2198 51.5397ZM51.1015 52.296C51.1015 52.9488 51.3682 53.5341 51.9021 53.9424L53.117 52.3536C53.1045 52.3441 53.1004 52.339 53.1008 52.3394C53.1014 52.3401 53.1035 52.343 53.1054 52.3471C53.1073 52.351 53.1067 52.3513 53.1055 52.3451C53.1041 52.3386 53.1015 52.323 53.1015 52.296H51.1015ZM51.9132 53.9507C52.3903 54.3051 52.9476 54.46 53.5295 54.46V52.46C53.3115 52.46 53.1888 52.4069 53.1059 52.3453L51.9132 53.9507ZM53.5295 54.46C54.1804 54.46 54.7797 54.2503 55.2795 53.8274L53.9876 52.3006C53.8634 52.4057 53.7267 52.46 53.5295 52.46V54.46ZM55.2699 53.8354C55.8658 53.3438 56.1135 52.6539 56.1135 51.924H54.1135C54.1135 52.1861 54.0413 52.2562 53.9971 52.2926L55.2699 53.8354ZM56.1135 51.924C56.1135 51.2694 55.8928 50.6733 55.4828 50.1668L53.9283 51.4252C54.0623 51.5907 54.1135 51.7466 54.1135 51.924H56.1135ZM55.4918 50.1782C54.9416 49.4778 54.0594 49.292 53.2415 49.292V51.292C53.5257 51.292 53.7081 51.3264 53.816 51.3635C53.9163 51.398 53.9288 51.426 53.9192 51.4138L55.4918 50.1782ZM53.2415 49.292C52.951 49.292 52.6556 49.3143 52.387 49.3849L52.896 51.3191C52.9315 51.3097 53.0361 51.292 53.2415 51.292V49.292ZM52.4355 49.3735C52.3646 49.3884 52.3165 49.3977 52.2872 49.4028C52.2723 49.4054 52.2686 49.4058 52.2728 49.4052C52.2751 49.4049 52.2832 49.4039 52.2955 49.4029C52.3019 49.4023 52.3108 49.4016 52.3217 49.4011C52.3323 49.4006 52.3473 49.4 52.3655 49.4V51.4C52.4816 51.4 52.5966 51.379 52.6299 51.3732C52.6925 51.3623 52.7665 51.3476 52.8475 51.3305L52.4355 49.3735ZM52.3655 49.4C52.482 49.4 52.7482 49.4345 52.9706 49.6727C53.1808 49.8979 53.1975 50.1424 53.1975 50.22H51.1975C51.1975 50.4176 51.2423 50.7521 51.5085 51.0373C51.7868 51.3355 52.137 51.4 52.3655 51.4V49.4ZM53.1975 50.22C53.1975 50.282 53.1872 50.3835 53.1353 50.5001C53.0809 50.6225 52.9958 50.7273 52.8935 50.804L51.6935 49.204C51.326 49.4796 51.1975 49.88 51.1975 50.22H53.1975ZM52.9075 50.7934C52.8709 50.8218 52.8396 50.8411 52.8185 50.8531C52.7969 50.8653 52.7803 50.8731 52.771 50.8772C52.7537 50.8849 52.7497 50.8851 52.7659 50.8802C52.7808 50.8757 52.8061 50.8688 52.844 50.8603C52.8815 50.8519 52.9276 50.8426 52.9833 50.8328L52.6357 48.8632C52.479 48.8909 52.3255 48.924 52.1871 48.9658C52.075 48.9997 51.8668 49.069 51.6796 49.2146L52.9075 50.7934ZM52.9909 50.8314C53.8596 50.6712 54.7206 50.3754 55.2308 49.7452L53.6763 48.4868C53.6424 48.5286 53.4075 48.7208 52.6281 48.8646L52.9909 50.8314ZM55.2291 49.7473C55.6407 49.2415 55.8735 48.6465 55.8735 47.988H53.8735C53.8735 48.1455 53.8263 48.3025 53.678 48.4847L55.2291 49.7473ZM55.8735 47.988C55.8735 47.3313 55.6512 46.701 55.1145 46.2432L53.8166 47.7648C53.8333 47.7791 53.8407 47.7899 53.8478 47.807C53.8567 47.8285 53.8735 47.8824 53.8735 47.988H55.8735ZM55.1272 46.2542C54.674 45.8543 54.1232 45.644 53.5175 45.644V47.644C53.6318 47.644 53.7131 47.6737 53.8039 47.7538L55.1272 46.2542ZM53.5175 45.644C52.9666 45.644 52.4471 45.8143 52.0133 46.1758L53.2937 47.7122C53.3399 47.6737 53.3965 47.644 53.5175 47.644V45.644ZM52.016 46.1736C51.5145 46.5886 51.3055 47.1661 51.3055 47.76H53.3055C53.3055 47.6936 53.3163 47.675 53.3124 47.6843C53.3105 47.6886 53.3069 47.6956 53.3013 47.703C53.2987 47.7065 53.2963 47.7093 53.2942 47.7114C53.2922 47.7134 53.2911 47.7144 53.2911 47.7144L52.016 46.1736ZM51.3055 47.76C51.3055 48.025 51.3393 48.3074 51.4412 48.5791L53.3139 47.8769C53.3174 47.8862 53.315 47.8832 53.3119 47.8629C53.3088 47.8427 53.3055 47.8092 53.3055 47.76H51.3055ZM51.4713 48.6509C51.5379 48.7935 51.6078 48.9291 51.6818 49.0559L53.4093 48.0481C53.3712 47.9829 53.3292 47.9025 53.2837 47.8051L51.4713 48.6509ZM51.7019 49.0889C51.7251 49.1253 51.7311 49.1367 51.7281 49.1311C51.7272 49.1295 51.7146 49.1065 51.6996 49.07C51.692 49.0516 51.6783 49.0165 51.6653 48.9699C51.6548 48.9325 51.6295 48.8358 51.6295 48.708H53.6295C53.6295 48.4886 53.5541 48.321 53.549 48.3085C53.5269 48.255 53.5038 48.2105 53.489 48.1829C53.458 48.1253 53.422 48.0667 53.3892 48.0151L51.7019 49.0889ZM51.6295 48.708C51.6295 48.5824 51.658 48.4243 51.7487 48.2668C51.8394 48.1092 51.9621 48.0049 52.0715 47.9416C52.1746 47.8819 52.2639 47.8591 52.3118 47.8499C52.3614 47.8403 52.3942 47.84 52.4015 47.84V49.84C52.5413 49.84 52.8091 49.8255 53.0736 49.6724C53.4212 49.4712 53.6295 49.1079 53.6295 48.708H51.6295ZM52.4015 47.84C52.3018 47.84 52.2776 47.8173 52.2557 47.7962L50.8674 49.2358C51.2935 49.6467 51.8293 49.84 52.4015 49.84V47.84ZM52.2686 47.8089C52.2551 47.7954 52.2519 47.7881 52.2498 47.7826C52.2469 47.7752 52.2375 47.7479 52.2375 47.688H50.2375C50.2375 48.2601 50.4313 48.7999 50.8544 49.2231L52.2686 47.8089ZM52.2375 47.688C52.2375 47.5181 52.2801 47.4266 52.4503 47.3172L51.3688 45.6348C50.6429 46.1014 50.2375 46.8179 50.2375 47.688H52.2375ZM52.4503 47.3172C52.7089 47.1509 53.053 47.044 53.5295 47.044V45.044C52.7421 45.044 52.0061 45.2251 51.3688 45.6348L52.4503 47.3172ZM53.5295 47.044C53.8377 47.044 54.1289 47.0959 54.4087 47.1987L55.0983 45.3213C54.5942 45.1361 54.0693 45.044 53.5295 45.044V47.044ZM54.4087 47.1987C54.655 47.2892 54.8182 47.4101 54.9333 47.5482L56.4698 46.2678C56.1049 45.8299 55.636 45.5188 55.0983 45.3213L54.4087 47.1987ZM54.9529 47.571C55.0271 47.6548 55.0735 47.7539 55.0735 47.928H57.0735C57.0735 47.3021 56.8719 46.7212 56.4501 46.245L54.9529 47.571ZM55.0735 47.928C55.0735 48.1735 55.006 48.343 54.8853 48.4878L56.4218 49.7682C56.8611 49.241 57.0735 48.6105 57.0735 47.928H55.0735ZM54.893 48.4787C54.7486 48.6479 54.5095 48.8235 54.1144 48.9717L54.8167 50.8443C55.4456 50.6085 55.9985 50.2641 56.4141 49.7773L54.893 48.4787ZM54.2416 50.8826C54.6728 50.9817 54.9112 51.145 55.052 51.3146L56.5911 50.0374C56.1078 49.455 55.4423 49.1063 54.6894 48.9334L54.2416 50.8826ZM55.052 51.3146C55.21 51.505 55.2895 51.7172 55.2895 51.996H57.2895C57.2895 51.2668 57.057 50.599 56.5911 50.0374L55.052 51.3146ZM55.2895 51.996C55.2895 52.409 55.1593 52.6299 54.9414 52.7951L56.1496 54.3889C56.9238 53.8021 57.2895 52.959 57.2895 51.996H55.2895ZM54.9352 52.7999C54.676 52.9996 54.2521 53.156 53.5535 53.156V55.156C54.535 55.156 55.4391 54.9364 56.1559 54.3841L54.9352 52.7999Z" fill="black" fill-opacity="0.1"/>
</g>
<defs>
<filter id="filter0_d" x="-3.22217" y="45.0439" width="64.5115" height="20.992" filterUnits="userSpaceOnUse" color-interpolation-filters="sRGB">
<feFlood flood-opacity="0" result="BackgroundImageFix"/>
<feColorMatrix in="SourceAlpha" type="matrix" values="0 0 0 0 0 0 0 0 0 0 0 0 0 0 0 0 0 0 127 0"/>
<feOffset dy="4"/>
<feGaussianBlur stdDeviation="2"/>
<feColorMatrix type="matrix" values="0 0 0 0 0 0 0 0 0 0 0 0 0 0 0 0 0 0 0.05 0"/>
<feBlend mode="normal" in2="BackgroundImageFix" result="effect1_dropShadow"/>
<feBlend mode="normal" in="SourceGraphic" in2="effect1_dropShadow" result="shape"/>
</filter>
</defs>
</svg>
